<svg xmlns="http://www.w3.org/2000/svg" xmlns:xlink="http://www.w3.org/1999/xlink" fill="none" version="1.1" width="33.282958984375" height="33.157958984375" viewBox="0 0 33.282958984375 33.157958984375"><g><g><path d="M18.7355,0.129047C18.0438,0.0436976,17.3476,0.000601176,16.6507,0C7.45477,0.00000273006,0,7.42225,0,16.578C0,16.7453,0,16.9107,0.0127787,17.0779C2.78443,8.51663,9.91251,2.06389,18.7355,0.129047Z" fill="#1C71E6" fill-opacity="1"/></g><g><path d="M9.874313516082763,10.565512916030883C13.538173516082765,6.9176529160308835,18.392273516082764,4.841982916030884,23.689973516082762,4.620242916030884C24.005773516082765,4.607522916030884,24.321573516082765,4.598432916030884,24.639273516082763,4.598432916030884C24.911273516082765,4.598432916030884,25.186873516082763,4.598432916030884,25.458873516082765,4.612972916030884C26.471073516082765,4.650792916030884,27.479773516082762,4.754612916030884,28.478373516082765,4.923772916030884C27.274373516082765,3.7091729160308837,25.889573516082763,2.686593916030884,24.372673516082763,1.8920729160308838C22.235473516082763,1.9122165160308837,20.110173516082764,2.2110219160308837,18.050873516082763,2.7808639160308837C11.015793516082764,4.726802916030884,5.3255035160827635,9.881022916030883,2.7163935160827637,16.670672916030885C1.9543265160827636,18.684072916030885,1.4703985160827637,20.791072916030885,1.2778735160827637,22.934072916030885C1.9436965160827637,24.524872916030883,2.855303516082764,26.002272916030883,3.9796635160827636,27.312572916030884Q3.9212435160827637,26.700072916030884,3.8993435160827636,26.082072916030885C3.8573235160827637,24.884272916030884,3.9122735160827635,23.685072916030883,4.0636335160827635,22.496072916030883C4.606243516082763,17.984172916030882,6.6521035160827635,13.783672916030884,9.874313516082763,10.565512916030883Z" fill="#000000" fill-opacity="1"/></g><g><path d="M28.522067808532714,16.578064060668947L28.522067808532714,16.338144060668945C28.522067808532714,16.027344060668945,28.494667808532714,15.720173060668944,28.465467808532715,15.414821060668945C23.091507808532715,13.825894060668945,17.391177808532714,16.602394060668946,15.352667808532715,21.801754060668944L15.438468108532716,21.832654060668943C16.812397808532715,22.312274060668944,18.252967808532716,22.575954060668945,19.708387808532713,22.614214060668946L20.360107808532714,22.625114060668945C20.647607808532715,22.221744060668946,20.975437808532714,21.848454060668946,21.338597808532715,21.510944060668947C23.390487808532715,19.602494060668946,26.119667808532714,19.148104060668945,27.707867808532715,20.342254060668946C27.991567808532714,19.777034060668946,28.209067808532716,19.181194060668943,28.355967808532714,18.566484060668945C28.468067808532716,17.909594060668944,28.523667808532714,17.244374060668946,28.522067808532714,16.578064060668947Z" fill="#EE4036" fill-opacity="1"/></g><g><path d="M33.1971263092041,14.740470462341309C32.889626309204104,11.96394046234131,31.878326309204102,9.310810462341308,30.2580263092041,7.030347462341308C28.9183263092041,6.695029462341308,27.546026309204102,6.504897362341309,26.1652263092041,6.463266062341309C25.858526309204102,6.454178362341309,25.551826309204102,6.454178362341309,25.2524263092041,6.463266062341309C17.1133263092041,6.617720462341309,9.9185163092041,11.768140462341307,7.179656309204102,19.400750462341307C6.850265309204102,20.31355046234131,6.593294309204102,21.25065046234131,6.411104309204101,22.20345046234131C8.225686309204102,23.679250462341308,10.003756309204102,24.90245046234131,11.887706309204102,25.72405046234131C12.723216309204101,26.082050462341307,13.581196309204103,26.385550462341307,14.456236309204101,26.63285046234131C16.0881263092041,27.098450462341308,17.778926309204103,27.32795046234131,19.4764263092041,27.31445046234131C19.135726309204102,26.46415046234131,19.0958263092041,25.523850462341308,19.3632263092041,24.64805046234131C17.796926309204103,24.57855046234131,16.248726309204102,24.284650462341308,14.766576309204101,23.775650462341307C13.907096309204102,23.510350462341307,13.090116309204102,23.12415046234131,12.340436309204101,22.62875046234131C12.9222763092041,20.22855046234131,14.172606309204102,18.040550462341308,15.947696309204101,16.31630046234131C18.4597263092041,13.791000462341309,21.8708263092041,12.35413046234131,25.440426309204103,12.317650462341309L25.577426309204103,12.317650462341309C26.4304263092041,12.317290462341308,27.2814263092041,12.39947046234131,28.1185263092041,12.56303046234131C28.804926309204102,12.694490462341308,29.4795263092041,12.881100462341308,30.135726309204102,13.12102046234131C30.4013263092041,14.158240462341308,30.545826309204102,15.222490462341309,30.5665263092041,16.29268046234131C30.5665263092041,16.38901046234131,30.5665263092041,16.47445046234131,30.5665263092041,16.57985046234131C30.568526309204103,18.88645046234131,29.987826309204102,21.156550462341308,28.877926309204103,23.181250462341307C27.2187263092041,26.22275046234131,24.4805263092041,28.539450462341307,21.1979263092041,29.67905046234131C19.7308263092041,30.18895046234131,18.1879263092041,30.44885046234131,16.6341263092041,30.447850462341307C16.3055263092041,30.447850462341307,15.978726309204102,30.43155046234131,15.655606309204101,30.409750462341307C14.591126309204101,30.33715046234131,13.538676309204101,30.14205046234131,12.519336309204101,29.82815046234131C9.993726309204101,29.045550462341307,7.743616309204102,27.56415046234131,6.031393199204102,25.55685046234131C6.004777309204101,26.93035046234131,6.127189409204101,28.302650462341308,6.396500309204102,29.64995046234131C8.602106309204101,31.368450462341308,11.209226309204102,32.502150462341305,13.974286309204102,32.945250462341306C14.853216309204102,33.08625046234131,15.742006309204102,33.15735046234131,16.6322263092041,33.15785046234131C16.957226309204103,33.15785046234131,17.278526309204103,33.145150462341306,17.5979263092041,33.12695046234131C20.0014263092041,32.99305046234131,22.3466263092041,32.33805046234131,24.469326309204103,31.20765046234131C27.128226309204102,29.79145046234131,29.3529263092041,27.685650462341307,30.9079263092041,25.11335046234131C32.7888263092041,21.99865046234131,33.5869263092041,18.353850462341306,33.1789263092041,14.742290462341309L33.1971263092041,14.740470462341309Z" fill="#F6921E" fill-opacity="1"/></g></g></svg>